<svg width="37" height="37" viewBox="0 0 37 37" fill="none" xmlns="http://www.w3.org/2000/svg">
<path d="M18.5 18.5C20.3399 18.5 22.1045 17.7691 23.4056 16.4681C24.7066 15.167 25.4375 13.4024 25.4375 11.5625C25.4375 9.72256 24.7066 7.95798 23.4056 6.65695C22.1045 5.35591 20.3399 4.625 18.5 4.625C16.6601 4.625 14.8955 5.35591 13.5944 6.65695C12.2934 7.95798 11.5625 9.72256 11.5625 11.5625C11.5625 13.4024 12.2934 15.167 13.5944 16.4681C14.8955 17.7691 16.6601 18.5 18.5 18.5ZM23.125 11.5625C23.125 12.7891 22.6377 13.9655 21.7704 14.8329C20.903 15.7002 19.7266 16.1875 18.5 16.1875C17.2734 16.1875 16.097 15.7002 15.2296 14.8329C14.3623 13.9655 13.875 12.7891 13.875 11.5625C13.875 10.3359 14.3623 9.15949 15.2296 8.29213C16.097 7.42478 17.2734 6.9375 18.5 6.9375C19.7266 6.9375 20.903 7.42478 21.7704 8.29213C22.6377 9.15949 23.125 10.3359 23.125 11.5625ZM32.375 30.0625C32.375 32.375 30.0625 32.375 30.0625 32.375H6.9375C6.9375 32.375 4.625 32.375 4.625 30.0625C4.625 27.75 6.9375 20.8125 18.5 20.8125C30.0625 20.8125 32.375 27.75 32.375 30.0625ZM30.0625 30.0533C30.0602 29.4844 29.7064 27.7731 28.1385 26.2052C26.6308 24.6975 23.7933 23.125 18.5 23.125C13.2044 23.125 10.3693 24.6975 8.8615 26.2052C7.29363 27.7731 6.94213 29.4844 6.9375 30.0533H30.0625Z" fill="#979797"/>
</svg>
