<svg width="47" height="47" viewBox="0 0 47 47" fill="none" xmlns="http://www.w3.org/2000/svg">
<path d="M15.6804 4.67063C12.8827 5.44167 10.104 6.28008 7.3467 7.18513C7.09493 7.26668 6.87112 7.41731 6.70077 7.61986C6.53043 7.8224 6.42039 8.06872 6.3832 8.33075C4.75583 20.5419 8.51583 29.4514 13.0014 35.3205C14.9005 37.8303 17.165 40.0413 19.7195 41.8799C20.7358 42.5967 21.6347 43.1137 22.3426 43.4456C22.6951 43.6131 22.983 43.7247 23.2033 43.7922C23.2997 43.826 23.399 43.8506 23.5 43.8657C23.5998 43.8495 23.6981 43.8249 23.7938 43.7922C24.017 43.7247 24.3049 43.6131 24.6574 43.4456C25.3624 43.1137 26.2642 42.5937 27.2806 41.8799C29.835 40.0413 32.0995 37.8302 33.9986 35.3205C38.4842 29.4543 42.2442 20.5419 40.6168 8.33075C40.58 8.0686 40.4701 7.82212 40.2997 7.61952C40.1293 7.41692 39.9053 7.26638 39.6533 7.18513C37.741 6.55944 34.5127 5.54012 31.3196 4.67356C28.059 3.78937 25.0598 3.13431 23.5 3.13431C21.9431 3.13431 18.941 3.78644 15.6804 4.67063ZM14.899 1.645C18.0862 0.778438 21.4731 0 23.5 0C25.5269 0 28.9138 0.778438 32.101 1.645C35.3616 2.52625 38.6487 3.56906 40.5816 4.20062C41.3897 4.4675 42.1062 4.95693 42.6486 5.61268C43.1911 6.26844 43.5376 7.06392 43.6483 7.90775C45.3991 21.0589 41.3365 30.8056 36.4074 37.2534C34.3172 40.0116 31.8249 42.4406 29.0137 44.4591C28.0417 45.1575 27.0118 45.7717 25.9352 46.295C25.1127 46.6828 24.2285 47 23.5 47C22.7715 47 21.8903 46.6828 21.0648 46.295C19.9883 45.7718 18.9584 45.1576 17.9863 44.4591C15.1752 42.4405 12.6829 40.0116 10.5926 37.2534C5.66352 30.8056 1.60095 21.0589 3.3517 7.90775C3.46241 7.06392 3.8089 6.26844 4.35138 5.61268C4.89386 4.95693 5.61032 4.4675 6.41845 4.20062C9.22433 3.28063 12.052 2.4285 14.899 1.645Z" fill="white"/>
<path d="M27.9063 19.0937C27.9067 20.0053 27.6245 20.8946 27.0984 21.6391C26.5722 22.3835 25.8282 22.9464 24.9688 23.2503L26.0997 29.0959C26.1408 29.3085 26.1345 29.5276 26.081 29.7375C26.0276 29.9473 25.9284 30.1428 25.7905 30.3098C25.6527 30.4769 25.4796 30.6113 25.2837 30.7036C25.0878 30.7959 24.8739 30.8438 24.6574 30.8437H22.3426C22.1263 30.8434 21.9128 30.7952 21.7172 30.7027C21.5217 30.6102 21.349 30.4757 21.2115 30.3087C21.074 30.1417 20.975 29.9464 20.9217 29.7368C20.8685 29.5271 20.8622 29.3083 20.9033 29.0959L22.0313 23.2503C21.2697 22.9811 20.5969 22.5077 20.0862 21.8819C19.5755 21.2561 19.2467 20.502 19.1356 19.702C19.0245 18.9019 19.1355 18.0868 19.4564 17.3455C19.7773 16.6043 20.2957 15.9655 20.9551 15.499C21.6145 15.0325 22.3894 14.7562 23.1952 14.7004C24.0009 14.6445 24.8066 14.8112 25.524 15.1822C26.2415 15.5532 26.8431 16.1143 27.2633 16.8041C27.6834 17.494 27.9058 18.286 27.9063 19.0937Z" fill="white"/>
</svg>
