<svg width="752" height="557" viewBox="0 0 752 557" fill="none" xmlns="http://www.w3.org/2000/svg">
<g clip-path="url(#clip0_19_334)">
<path d="M680.151 553.838H520.885V548.95C520.885 544.707 522.571 540.637 525.571 537.637C528.572 534.636 532.642 532.95 536.885 532.95H664.151C668.394 532.95 672.464 534.636 675.464 537.637C678.465 540.637 680.151 544.707 680.151 548.95V553.838Z" fill="#8C8585"/>
<path d="M455.113 66.4025H450.891C450.921 55.0525 451.99 43.7571 456.648 33.6588C461.366 23.4312 469.786 14.388 484.65 7.77619C514.791 -5.62957 548.862 -0.258096 573.58 21.8006L573.583 21.803C585.955 32.6832 594.877 46.9427 599.251 62.8272C603.625 78.7118 603.26 95.5285 598.202 111.208L598.201 111.212C555.39 247.256 550.451 405.849 600.984 531.698L597.068 533.275C546.296 406.836 550.919 247.399 594.173 109.945C598.982 95.0388 599.329 79.0516 595.17 63.9506C591.012 48.8494 582.53 35.2931 570.767 24.9497C547.309 4.01761 514.965 -1.08535 486.366 11.6337L486.366 11.6337C473.43 17.3877 465.595 25.0074 461.007 34.3233C456.491 43.4954 455.148 54.2632 455.113 66.4025Z" fill="#E6E6E6" stroke="black"/>
<path d="M454.307 143.924C464.4 143.924 472.583 135.742 472.583 125.648C472.583 115.554 464.4 107.372 454.307 107.372C444.213 107.372 436.03 115.554 436.03 125.648C436.03 135.742 444.213 143.924 454.307 143.924Z" fill="#ECA881"/>
<path d="M426.159 157.509V122.88H431.544V157.509C433.089 158.134 434.368 159.276 435.162 160.741C435.957 162.205 436.217 163.9 435.899 165.536C435.581 167.171 434.704 168.645 433.418 169.705C432.132 170.765 430.518 171.344 428.852 171.344C427.186 171.344 425.571 170.765 424.286 169.705C423 168.645 422.123 167.171 421.804 165.536C421.486 163.9 421.747 162.205 422.541 160.741C423.336 159.276 424.615 158.134 426.159 157.509Z" fill="#E6E6E6"/>
<path d="M400.13 96.275C400.139 88.3145 403.306 80.6827 408.935 75.0538C414.563 69.4249 422.195 66.2586 430.156 66.2495H479.763C487.726 66.2495 495.363 69.4129 500.994 75.0438C506.625 80.6747 509.789 88.3118 509.789 96.275C509.789 104.238 506.625 111.875 500.994 117.506C495.363 123.137 487.726 126.301 479.763 126.301H430.156C422.195 126.291 414.563 123.125 408.935 117.496C403.306 111.867 400.139 104.235 400.13 96.275Z" fill="#D6F900"/>
<path d="M330.236 282.212C335.216 218.489 360.682 188.128 344.376 169.089C328.757 150.851 284.759 154.619 256.504 172.119C180.291 219.321 152.37 407.452 250.443 499.368C343.638 586.711 520.26 558.737 559.512 487.247C568.67 470.567 575.946 441.325 562.542 423.616C529.263 379.649 408.271 459.285 354.476 409.475C322.596 379.956 327.502 317.183 330.236 282.212Z" fill="#3F3D56"/>
<path d="M388.493 250.554C386.642 251.406 385.196 252.946 384.463 254.847C383.731 256.748 383.769 258.86 384.569 260.734C384.738 261.112 384.938 261.476 385.166 261.821L368.808 283.663L376.971 295.863L396.145 263.52C397.503 262.46 398.473 260.981 398.902 259.313C399.331 257.644 399.196 255.881 398.518 254.297C398.123 253.4 397.556 252.589 396.848 251.911C396.14 251.233 395.305 250.701 394.392 250.346C393.478 249.99 392.503 249.818 391.523 249.839C390.543 249.86 389.577 250.074 388.68 250.469C388.617 250.497 388.555 250.525 388.493 250.554Z" fill="#FFB6B6"/>
<path d="M388.48 288.213C389.551 289.162 386.581 290.334 383.44 288.485C382.541 287.95 382.157 287.728 382.056 287.869C381.804 288.223 383.278 290.829 382.884 296.616C382.642 300.07 376.905 306.565 370.39 312.898C361.583 321.463 351.341 329.725 351.341 329.725L347.746 326.846L310.041 296.616L303.678 287.809C304.261 284.331 305.136 280.908 306.294 277.577C307.889 272.966 309.786 268.466 311.97 264.103C313.142 261.73 314.344 259.467 315.495 257.387L335.696 279.648L352.624 298.293C352.624 298.293 357.553 290.354 361.371 288.192C361.858 287.881 362.412 287.691 362.987 287.637C366.845 287.455 367.077 285.354 362.603 280.779C358.129 276.203 363.775 280.476 367.754 279.244C371.734 278.011 367.754 279.244 368.593 276.163C369.431 273.082 380.592 266.901 380.592 266.901L381.056 267.315L389.49 274.759L391.904 276.89C391.904 276.89 389.268 284.122 388.541 285.647C387.813 287.172 387.419 287.253 388.48 288.213Z" fill="#929292"/>
<path d="M610.804 428.521L611.215 417.38L568.439 410.493L567.832 426.935L610.804 428.521Z" fill="#FFB6B6"/>
<path d="M603.039 431.875L602.633 414.037L610.259 414.319L622.57 397.828C623.178 397.014 624.031 396.415 625.003 396.119C625.975 395.823 627.017 395.846 627.975 396.184C628.934 396.522 629.759 397.158 630.331 397.998C630.903 398.838 631.191 399.84 631.153 400.855L630.372 422.045L622.694 425.419L630.184 427.124L629.889 435.113L603.039 431.875Z" fill="#2F2E41"/>
<path d="M370.055 432.858L505.543 436.294C505.543 436.294 564.051 439.673 577.779 430.743L592.255 428.916L593.039 407.652C593.039 407.652 584.187 407.717 579.098 405.346C574.008 402.975 577.545 400.073 572.693 402.926C567.84 405.779 568.353 406.122 564.601 404.811C560.85 403.5 388.806 377.276 388.806 377.276L370.055 432.858Z" fill="#2F2E41"/>
<path d="M548.592 423.631L556.471 415.744L529.796 381.601L518.168 393.243L548.592 423.631Z" fill="#FFB6B6"/>
<path d="M540.619 416.769L552.453 403.416L557.852 408.809L578.093 405.093C579.093 404.91 580.125 405.05 581.039 405.495C581.953 405.939 582.701 406.664 583.174 407.564C583.647 408.464 583.819 409.491 583.667 410.496C583.515 411.501 583.045 412.431 582.326 413.15L567.341 428.152L559.418 425.404L563.75 431.748L558.1 437.405L540.619 416.769Z" fill="#2F2E41"/>
<path d="M316.601 358.657L317.948 389.967C319.533 426.826 360.126 449.135 391.602 429.89C392.182 429.535 392.764 429.168 393.348 428.788C393.348 428.788 405.281 425.583 404.919 420.508C404.557 415.433 407.472 412.963 410.052 414.347C412.631 415.731 446.409 367.795 446.409 367.795C446.409 367.795 516.587 402.801 532.069 411.042C532.069 411.042 546.625 388.283 545.569 388.521C544.514 388.76 458.75 328.733 458.75 328.733C458.75 328.733 444.778 314.593 427.447 323.929C427.086 325.3 427.394 325.348 427.394 325.348L370.142 372L362.052 356.637L316.601 358.657Z" fill="#2F2E41"/>
<path d="M370.582 319.513C370.474 320.96 370.268 322.397 369.966 323.816C369.554 325.87 368.889 327.865 367.987 329.755C367.987 329.755 367.986 331.866 363.946 338.936C359.906 346.006 364.956 342.976 367.987 348.229C371.017 353.47 367.986 351.057 364.623 354.43C363.655 355.412 362.967 356.635 362.631 357.972C362.296 359.31 362.324 360.713 362.714 362.036C362.714 362.036 319.323 362.066 311.243 359.036C303.163 356.006 301.325 338.936 308.567 337.249C315.798 335.563 306.375 333.886 302.123 329.997C297.87 326.109 306.375 319.746 306.375 319.746C306.375 319.746 302.87 313.696 303.163 293.384C303.204 291.516 303.376 289.653 303.678 287.809C304.261 284.331 305.136 280.908 306.294 277.577C307.889 272.967 309.786 268.466 311.97 264.103C313.142 261.73 314.344 259.467 315.495 257.387C315.677 257.063 315.849 256.75 316.031 256.437C318.222 252.559 320.222 249.387 321.545 247.357C322.565 245.781 323.182 244.893 323.182 244.893L330.535 232.106L355.078 243.61L353.684 262.427L357.916 276.618L359.866 283.152L361.371 288.192L363.694 296C363.694 296 363.057 296.03 363.815 297.071C367.304 301.709 369.565 307.153 370.39 312.898C370.681 315.09 370.745 317.307 370.582 319.513Z" fill="#929292"/>
<path d="M441.461 321.541L441.001 321.392L382.257 302.476L403.904 231.459C404.335 230.045 405.081 228.747 406.087 227.663C407.092 226.579 408.331 225.738 409.709 225.202C411.087 224.667 412.568 224.451 414.042 224.572C415.515 224.692 416.942 225.145 418.215 225.897L455.755 248.076C458.727 249.83 460.987 252.572 462.142 255.824C463.297 259.075 463.273 262.629 462.074 265.864L441.461 321.541Z" fill="#2F2E41"/>
<path d="M441.7 326.056L382.483 306.987L404.13 235.97C404.561 234.556 405.308 233.258 406.313 232.174C407.319 231.091 408.557 230.249 409.935 229.714C411.313 229.178 412.795 228.963 414.268 229.083C415.742 229.203 417.169 229.656 418.442 230.408L457.774 250.046C463.683 253.536 463.545 262.569 460.801 269.981L441.7 326.056Z" fill="#6C63FF"/>
<path d="M435.771 331.196C434.408 331.965 432.899 332.443 431.341 332.598C429.783 332.753 428.21 332.582 426.721 332.096L388.871 319.907C385.967 318.958 383.549 316.912 382.134 314.204C380.719 311.497 380.418 308.343 381.297 305.417L400.273 243.162C400.652 241.919 401.276 240.763 402.107 239.764C402.939 238.764 403.962 237.941 405.116 237.342C406.27 236.743 407.532 236.38 408.828 236.275C410.124 236.17 411.428 236.325 412.663 236.731L451.887 249.61C453.756 250.224 455.483 251.206 456.967 252.498C458.45 253.79 459.659 255.366 460.522 257.133C461.386 258.901 461.887 260.823 461.995 262.787C462.103 264.751 461.817 266.717 461.153 268.569L440.863 325.134C439.952 327.702 438.144 329.855 435.771 331.196Z" fill="#3F3D56"/>
<path d="M353.691 232.324C368.663 232.324 380.801 220.186 380.801 205.214C380.801 190.241 368.663 178.104 353.691 178.104C338.718 178.104 326.581 190.241 326.581 205.214C326.581 220.186 338.718 232.324 353.691 232.324Z" fill="#FFB6B6"/>
<path d="M262.017 232.732C264.505 237.555 268.584 241.368 273.563 243.526C275.55 244.431 277.639 245.092 279.785 245.495C280.392 243.09 281.363 240.791 282.664 238.679C282.231 241.059 282.231 243.498 282.664 245.879C285.934 246.146 289.223 245.738 292.327 244.679C295.376 243.642 298.142 241.909 300.404 239.617C302.667 237.325 304.364 234.537 305.361 231.475C307.521 224.289 305.195 216.614 305.011 209.113C304.823 201.611 308.385 192.639 315.832 191.711C321.503 191.003 320.802 191.553 324.877 195.559C319.177 201.891 333.073 229.936 340.529 228.697C344.745 227.996 347.847 224.649 348.681 224.765C352.951 235.221 340.107 250.051 350.294 254.919L349.538 253.919C344.206 245.111 359.983 230.233 354.651 221.425C353.165 218.961 351.619 216.072 352.539 213.346C353.412 210.754 357.832 209.934 358.765 212.293C357.249 206.887 361.481 200.541 367.102 199.989C372.096 199.496 371.808 200.92 376.57 202.218C377.178 200.167 378.055 198.205 379.177 196.384C378.798 198.462 378.751 200.587 379.039 202.68C380.756 202.885 382.493 202.517 383.98 201.634C388.377 198.998 388.508 192.194 385.487 188.053C382.461 183.911 377.393 181.866 372.503 180.318C372.458 169.977 344.631 165.026 339.513 174.641C338.987 166.856 330.063 161.612 322.375 162.934C314.688 164.257 308.623 170.421 304.925 177.291C301.229 184.157 299.393 191.844 296.687 199.156C293.981 206.469 290.112 213.76 283.631 218.099C277.152 222.432 267.522 222.826 262.112 217.21C260.878 219.608 260.226 222.263 260.21 224.96C260.193 227.657 260.813 230.319 262.017 232.732Z" fill="#2F2E41"/>
<path d="M289.834 356.705C290.395 356.256 291.004 355.871 291.649 355.556C302.026 350.391 334.295 336.986 359.526 337.536C408.074 338.594 469.858 392.173 455.479 428.153C444.538 455.531 390.143 471.107 350.436 458.649C294.81 441.197 272.854 370.244 289.834 356.705Z" fill="#3F3D56"/>
<path d="M421.141 289.414C419.105 289.488 417.178 290.354 415.771 291.827C414.363 293.3 413.586 295.265 413.605 297.302C413.615 297.716 413.66 298.129 413.738 298.535L390.24 312.409L393.084 326.809L423.219 304.324C424.881 303.869 426.344 302.876 427.382 301.501C428.42 300.126 428.974 298.446 428.956 296.723C428.937 295.743 428.725 294.777 428.332 293.878C427.939 292.98 427.373 292.168 426.666 291.489C425.96 290.81 425.126 290.276 424.213 289.919C423.301 289.561 422.326 289.387 421.346 289.407C421.278 289.408 421.209 289.41 421.141 289.414Z" fill="#FFB6B6"/>
<path d="M401.892 322.487C401.263 321.644 400.993 321.292 400.85 321.389C400.482 321.611 400.836 324.586 398.248 329.771C394.605 337.056 356.404 348.214 356.404 348.214L351.701 339.603L331.013 301.763L323.882 271.434C323.633 270.376 323.512 269.292 323.522 268.206C329.879 263.732 336.631 259.846 343.693 256.595C346.515 258.196 348.666 260.759 349.753 263.816L363.994 303.745L369.677 319.687C369.677 319.687 379.701 312.519 383.337 313.835C386.967 315.159 387.999 313.302 385.626 307.36C383.253 301.417 386.815 307.534 390.959 307.923C395.113 308.318 390.959 307.923 392.921 305.401C394.883 302.88 407.566 301.461 407.566 301.461L407.835 302.024L412.75 312.134L414.157 315.039C414.157 315.039 408.947 320.692 407.69 321.819C406.427 322.954 406.036 322.875 406.655 324.168C407.265 325.455 404.075 325.397 401.892 322.487Z" fill="#929292"/>
</g>
<defs>
<clipPath id="clip0_19_334">
<rect width="751.131" height="556.415" fill="white"/>
</clipPath>
</defs>
</svg>
