<svg width="223" height="69" viewBox="0 0 223 69" fill="none" xmlns="http://www.w3.org/2000/svg">
<g filter="url(#filter0_d_148_108)">
<path d="M30.4097 17.89C31.0497 16.61 31.3697 15.3733 31.3697 14.18C31.3697 12.9867 31.3064 12.06 31.1797 11.4C31.0464 10.7333 30.833 10.1467 30.5397 9.63999C29.8997 8.52666 28.9397 7.96999 27.6597 7.96999C26.0797 7.96999 24.6497 8.54666 23.3697 9.69999C22.003 10.8933 21.3197 12.43 21.3197 14.31C21.3197 15.5033 21.7364 16.56 22.5697 17.48C23.403 18.3933 24.4597 19.2767 25.7397 20.13C27.0197 20.9833 28.383 21.8367 29.8297 22.69C31.283 23.5433 32.6497 24.4833 33.9297 25.51C36.8697 27.8567 38.3397 30.6067 38.3397 33.76C38.3397 35.8933 37.7764 37.8667 36.6497 39.68C35.5164 41.4933 34.013 43.0633 32.1397 44.39C28.0397 47.29 23.2797 48.74 17.8597 48.74C13.4664 48.74 10.1397 48.0267 7.87968 46.6C5.61968 45.1667 4.48969 43.3633 4.48969 41.19C4.48969 37.3033 6.00302 34.87 9.02969 33.89C9.88302 33.59 10.9597 33.44 12.2597 33.44C13.5664 33.44 14.9664 33.72 16.4597 34.28C15.773 36.0267 15.4297 37.69 15.4297 39.27C15.4297 42.6833 16.6464 44.39 19.0797 44.39C20.6597 44.39 22.0997 43.8133 23.3997 42.66C24.6997 41.5067 25.3497 40.28 25.3497 38.98C25.3497 37.68 24.933 36.56 24.0997 35.62C23.273 34.68 22.2397 33.8367 20.9997 33.09C19.7597 32.3433 18.4264 31.6067 16.9997 30.88C15.573 30.16 14.2397 29.2867 12.9997 28.26C10.0997 25.9133 8.64968 22.8633 8.64968 19.11C8.64968 16.6767 9.24635 14.51 10.4397 12.61C11.633 10.71 13.1897 9.11999 15.1097 7.83999C18.9497 5.23999 23.2264 3.93999 27.9397 3.93999C32.6597 3.93999 36.1597 4.64332 38.4397 6.04999C40.7197 7.45666 41.8597 9.35666 41.8597 11.75C41.8597 13.8367 41.0497 15.5433 39.4297 16.87C38.023 17.9767 36.4664 18.53 34.7597 18.53C33.053 18.53 31.603 18.3167 30.4097 17.89ZM58.5697 43.94C57.243 47.14 54.4697 48.74 50.2497 48.74C48.0697 48.74 46.2997 47.9933 44.9397 46.5C43.7864 45.18 43.2097 43.8567 43.2097 42.53C43.2097 39.0767 43.9997 33.98 45.5797 27.24L47.9397 14.82L60.9397 13.54L57.0297 33.76C56.303 36.92 55.9397 39.0533 55.9397 40.16C55.9397 42.5933 56.8163 43.8533 58.5697 43.94ZM49.0997 5.91999C49.0997 4.25999 49.793 2.97999 51.1797 2.07999C52.5664 1.18666 54.2597 0.73999 56.2597 0.73999C58.2664 0.73999 59.8797 1.18666 61.0997 2.07999C62.313 2.97999 62.9197 4.25999 62.9197 5.91999C62.9197 7.58666 62.2464 8.84666 60.8997 9.69999C59.5597 10.5533 57.8864 10.98 55.8797 10.98C53.873 10.98 52.2397 10.5533 50.9797 9.69999C49.7263 8.84666 49.0997 7.58666 49.0997 5.91999ZM68.5497 20.71C70.003 18.6633 71.8264 16.9567 74.0197 15.59C76.2197 14.2233 78.663 13.54 81.3497 13.54C84.0364 13.54 86.0197 13.9667 87.2997 14.82L99.8497 13.54L95.4997 38.12C94.0064 46.48 91.6797 52.3033 88.5197 55.59C85.493 58.7033 81.033 60.26 75.1397 60.26C70.6597 60.26 67.1397 59.5567 64.5797 58.15C62.0197 56.7433 60.7397 54.8667 60.7397 52.52C60.7397 50.7667 61.403 49.39 62.7297 48.39C64.0497 47.3833 65.733 46.88 67.7797 46.88C69.573 46.88 71.153 47.2867 72.5197 48.1C73.333 48.5267 73.9297 49.04 74.3097 49.64C73.3297 50.4933 72.8397 51.6233 72.8397 53.03C72.8397 54.8633 73.693 55.78 75.3997 55.78C78.2597 55.78 80.4997 52.41 82.1197 45.67C82.5864 43.8367 83.013 42 83.3997 40.16C81.4797 42.5067 78.343 43.68 73.9897 43.68C70.963 43.68 68.573 42.9567 66.8197 41.51C65.073 40.0567 64.1997 37.6233 64.1997 34.21C64.1997 32.0767 64.563 29.8067 65.2897 27.4C66.0164 24.9867 67.103 22.7567 68.5497 20.71ZM76.8697 34.4C76.8697 37.3067 77.6164 38.76 79.1097 38.76C80.1364 38.76 81.1397 38.2033 82.1197 37.09C82.8864 36.1967 83.4197 35.0867 83.7197 33.76L86.9797 17.32C86.7664 17.2733 86.553 17.2067 86.3397 17.12C85.913 16.9533 85.423 16.87 84.8697 16.87C82.2697 16.87 80.1997 19.0033 78.6597 23.27C77.4664 26.5967 76.8697 30.3067 76.8697 34.4ZM129.42 48.74C124.253 48.74 121.67 46.7333 121.67 42.72C121.716 41.6133 121.91 40.12 122.25 38.24L123.4 32.36C124.553 26.8133 125.13 23.42 125.13 22.18C125.13 19.7067 124.403 18.47 122.95 18.47C120.516 18.47 118.66 21.6467 117.38 28L113.61 47.46L100.74 48.74L107.4 14.76L117.9 13.54L116.87 19.81C118.876 15.63 122.953 13.54 129.1 13.54C132.086 13.54 134.206 14.17 135.46 15.43C136.72 16.69 137.35 18.7267 137.35 21.54C137.35 24.1867 136.666 28.6033 135.3 34.79C134.66 37.5633 134.34 39.4733 134.34 40.52C134.34 41.56 134.63 42.38 135.21 42.98C135.783 43.58 136.496 43.92 137.35 44C136.923 45.4533 135.973 46.6067 134.5 47.46C133.033 48.3133 131.34 48.74 129.42 48.74ZM163.02 44.77C160.966 47.4167 157.403 48.74 152.33 48.74C149.683 48.74 147.4 47.94 145.48 46.34C143.56 44.74 142.6 42.7867 142.6 40.48C142.6 39.2 142.663 38.24 142.79 37.6L147.08 14.82L160.07 13.54L155.4 38.24C155.226 39.18 155.14 39.9267 155.14 40.48C155.14 42.96 155.886 44.2 157.38 44.2C159.046 44.2 160.476 43.0667 161.67 40.8C162.056 40.08 162.333 39.25 162.5 38.31L167.05 14.82L179.66 13.54L174.92 38.5C174.793 39.14 174.73 39.8 174.73 40.48C174.73 41.1667 174.92 41.8833 175.3 42.63C175.686 43.3767 176.5 43.8333 177.74 44C177.48 45.0267 176.903 45.88 176.01 46.56C174.13 48.0133 172.176 48.74 170.15 48.74C168.123 48.74 166.513 48.3767 165.32 47.65C164.126 46.9233 163.36 45.9633 163.02 44.77ZM212.94 43.08C211.146 44.8933 209.023 46.29 206.57 47.27C204.116 48.25 201.673 48.74 199.24 48.74C196.806 48.74 195.163 48.5267 194.31 48.1L192.33 58.98L179.34 60.26L188.17 14.82L198.6 13.73L197.77 18.15C199.563 15.1167 202.313 13.6 206.02 13.6C210.206 13.6 213.406 14.9467 215.62 17.64C217.586 20.0667 218.57 23.1367 218.57 26.85C218.57 30.5633 218.08 33.7433 217.1 36.39C216.113 39.0367 214.726 41.2667 212.94 43.08ZM198.47 25.12L195.08 43.88C195.973 44.6467 196.976 45.03 198.09 45.03C199.196 45.03 200.07 44.8167 200.71 44.39C201.35 43.9633 201.906 43.3233 202.38 42.47C203.66 40.1633 204.81 35.5133 205.83 28.52C206.13 26.4667 206.28 24.44 206.28 22.44C206.28 20.4333 206.056 19.11 205.61 18.47C205.163 17.83 204.513 17.51 203.66 17.51C201.053 17.51 199.323 20.0467 198.47 25.12Z" fill="#0E475B"/>
</g>
<defs>
<filter id="filter0_d_148_108" x="0.489685" y="0.73999" width="222.08" height="67.52" filterUnits="userSpaceOnUse" color-interpolation-filters="sRGB">
<feFlood flood-opacity="0" result="BackgroundImageFix"/>
<feColorMatrix in="SourceAlpha" type="matrix" values="0 0 0 0 0 0 0 0 0 0 0 0 0 0 0 0 0 0 127 0" result="hardAlpha"/>
<feOffset dy="4"/>
<feGaussianBlur stdDeviation="2"/>
<feComposite in2="hardAlpha" operator="out"/>
<feColorMatrix type="matrix" values="0 0 0 0 0 0 0 0 0 0 0 0 0 0 0 0 0 0 0.25 0"/>
<feBlend mode="normal" in2="BackgroundImageFix" result="effect1_dropShadow_148_108"/>
<feBlend mode="normal" in="SourceGraphic" in2="effect1_dropShadow_148_108" result="shape"/>
</filter>
</defs>
</svg>
