<svg width="464" height="374" viewBox="0 0 464 374" fill="none" xmlns="http://www.w3.org/2000/svg">
<g clip-path="url(#clip0_143_54)">
<path d="M445.619 0.000577044H306.336C299.615 0.000248421 293.094 2.28293 287.844 6.47338C282.595 10.6638 278.93 16.5127 277.451 23.0584L207.076 334.696C206.308 338.095 206.295 341.621 207.036 345.026C207.778 348.431 209.256 351.632 211.368 354.406C213.48 357.181 216.175 359.46 219.262 361.085C222.35 362.709 225.756 363.64 229.243 363.811L372.427 370.854C380.094 371.231 387.636 368.81 393.647 364.043C399.657 359.277 403.725 352.489 405.092 344.948L445.016 124.618L447.986 125.465L455.627 83.7039L452.57 82.9411L463.713 21.4386C464.191 18.8042 464.081 16.0971 463.39 13.5103C462.699 10.9235 461.445 8.5206 459.718 6.47304C457.99 4.42547 455.831 2.78362 453.395 1.66454C450.959 0.545461 448.306 -0.0232873 445.624 -0.00115567L445.619 0.000577044Z" fill="#3F3D56"/>
<path d="M324.671 6.71855H308.414C303.745 6.7186 299.216 8.31276 295.58 11.2364C291.943 14.16 289.418 18.2373 288.422 22.7914L220.869 331.886C220.48 333.666 220.481 335.508 220.87 337.288C221.26 339.067 222.03 340.742 223.127 342.197C224.225 343.653 225.624 344.854 227.229 345.72C228.834 346.586 230.608 347.095 232.429 347.214L375.147 356.553C379.174 356.816 383.156 355.591 386.335 353.11C389.514 350.628 391.666 347.066 392.382 343.101L450.025 23.6218C450.398 21.5541 450.312 19.4297 449.772 17.3988C449.233 15.3678 448.254 13.4798 446.905 11.8678C445.555 10.2558 443.867 8.95919 441.96 8.06947C440.054 7.17975 437.975 6.7186 435.87 6.71855H420.448C418.955 6.71851 417.504 7.20975 416.319 8.11623C415.134 9.02271 414.281 10.2939 413.893 11.7329C413.551 13.0038 412.798 14.1263 411.751 14.9267C410.705 15.7271 409.423 16.1606 408.105 16.1601H334.886C332.305 16.16 329.819 15.1876 327.925 13.4372C326.032 11.6868 324.869 9.28742 324.671 6.71855Z" fill="white"/>
<path d="M403.566 222.802C403.843 222.812 404.115 222.721 404.331 222.547C404.548 222.374 404.694 222.128 404.744 221.855L436.306 47.9585C436.336 47.7932 436.33 47.6234 436.288 47.4607C436.246 47.2979 436.17 47.146 436.064 47.0154C435.959 46.8858 435.827 46.7809 435.677 46.7081C435.527 46.6353 435.363 46.5963 435.196 46.5941L291.604 44.9009H291.591C291.33 44.9031 291.078 44.9936 290.876 45.1576C290.673 45.3216 290.533 45.5493 290.477 45.8036L253.27 214.056C253.234 214.22 253.233 214.391 253.269 214.555C253.304 214.719 253.375 214.874 253.476 215.009C253.576 215.142 253.704 215.252 253.852 215.33C253.999 215.409 254.162 215.454 254.329 215.462L403.566 222.802Z" fill="#E6E6E6"/>
<path d="M278.957 234.045C278.827 234.046 278.7 234.09 278.598 234.171C278.496 234.252 278.424 234.365 278.394 234.492L277.05 240.246C277.03 240.327 277.029 240.411 277.046 240.493C277.063 240.575 277.097 240.652 277.147 240.719C277.196 240.787 277.26 240.842 277.333 240.883C277.406 240.923 277.487 240.947 277.571 240.954L353.534 246.344C353.675 246.352 353.815 246.31 353.927 246.224C354.039 246.139 354.116 246.015 354.144 245.877L355.437 239.22C355.453 239.14 355.451 239.056 355.432 238.976C355.413 238.896 355.377 238.821 355.326 238.756C355.275 238.691 355.212 238.638 355.139 238.6C355.066 238.561 354.986 238.539 354.903 238.534L278.993 234.047L278.957 234.045Z" fill="#E6E6E6"/>
<path d="M371.249 267.714C371.386 267.725 371.523 267.687 371.634 267.607C371.746 267.527 371.825 267.41 371.858 267.276L373.504 260.606C373.524 260.524 373.526 260.439 373.51 260.356C373.494 260.274 373.46 260.196 373.41 260.127C373.36 260.059 373.296 260.003 373.223 259.962C373.149 259.921 373.067 259.897 372.983 259.891L275.972 253.118C275.841 253.107 275.709 253.142 275.601 253.218C275.492 253.293 275.413 253.403 275.377 253.53L273.666 259.294C273.642 259.376 273.636 259.463 273.65 259.548C273.663 259.633 273.695 259.714 273.744 259.785C273.793 259.855 273.856 259.915 273.931 259.958C274.005 260.001 274.089 260.027 274.174 260.034L371.249 267.714Z" fill="#E6E6E6"/>
<path d="M366.039 289.096C366.176 289.107 366.313 289.069 366.424 288.989C366.536 288.909 366.615 288.792 366.648 288.658L368.294 281.988C368.314 281.906 368.316 281.821 368.3 281.738C368.284 281.656 368.25 281.577 368.2 281.509C368.151 281.441 368.087 281.385 368.013 281.344C367.939 281.303 367.857 281.279 367.773 281.273L270.763 274.499C270.631 274.489 270.5 274.524 270.391 274.599C270.283 274.675 270.203 274.785 270.167 274.912L268.456 280.676C268.432 280.758 268.426 280.845 268.44 280.93C268.453 281.015 268.485 281.096 268.534 281.167C268.583 281.237 268.647 281.297 268.721 281.34C268.796 281.383 268.879 281.409 268.965 281.416L366.039 289.096Z" fill="#E6E6E6"/>
<path d="M197.842 364.371C197.842 369.208 153.498 369.722 98.9209 373.128C44.3922 376.53 0 369.208 0 364.371C0 359.535 44.5995 349.804 98.9209 355.614C153.498 361.452 197.842 359.535 197.842 364.371Z" fill="#E6E6E6"/>
<path d="M321.36 325.649C321.498 325.663 321.637 325.627 321.75 325.547C321.864 325.467 321.944 325.348 321.976 325.213L325.457 311.315C325.477 311.233 325.48 311.149 325.464 311.066C325.448 310.984 325.415 310.906 325.366 310.838C325.317 310.77 325.254 310.713 325.181 310.671C325.109 310.63 325.027 310.605 324.944 310.598L265.37 305.596C265.231 305.586 265.093 305.626 264.98 305.709C264.868 305.791 264.789 305.911 264.756 306.046L261.787 319.385C261.769 319.465 261.769 319.548 261.786 319.629C261.802 319.709 261.836 319.785 261.884 319.851C261.933 319.917 261.995 319.973 262.066 320.013C262.137 320.054 262.217 320.079 262.298 320.086L321.36 325.649Z" fill="#6C63FF"/>
<path d="M80.8141 269.012C81.5643 268.499 82.1926 267.828 82.6547 267.046C83.1169 266.264 83.4016 265.39 83.4889 264.487C83.5763 263.583 83.464 262.671 83.1601 261.816C82.8561 260.96 82.3679 260.181 81.7299 259.534L84.142 205.78L71.8615 207.156L72.5752 259.736C71.5568 260.877 70.9933 262.352 70.9917 263.88C70.9901 265.409 71.5503 266.885 72.5663 268.028C73.5823 269.172 74.9833 269.903 76.5037 270.084C78.024 270.265 79.558 269.883 80.8147 269.01L80.8141 269.012Z" fill="#A0616A"/>
<path d="M103.218 360.006L110.207 361.233L117.116 334.902L107.957 333.091L103.218 360.006Z" fill="#A0616A"/>
<path d="M122.548 370.077L100.581 366.222L102.073 357.749L115.553 360.115C117.804 360.51 119.806 361.782 121.117 363.65C122.429 365.519 122.944 367.831 122.548 370.078L122.548 370.077Z" fill="#2F2E41"/>
<path d="M84.0332 363.499H91.13L94.5059 336.171H84.032L84.0332 363.499Z" fill="#A0616A"/>
<path d="M104.814 370.078L82.51 370.079L82.5096 361.476L96.1961 361.476C98.4816 361.476 100.674 362.382 102.29 363.995C103.906 365.608 104.814 367.797 104.814 370.078Z" fill="#2F2E41"/>
<path d="M113.641 353.703C113.531 353.703 113.42 353.697 113.31 353.684L104.957 352.998C104.577 352.953 104.21 352.832 103.878 352.641C103.546 352.45 103.256 352.194 103.027 351.888C102.797 351.583 102.632 351.233 102.542 350.862C102.451 350.49 102.437 350.104 102.501 349.727L110.793 308.882L105.584 281.447C105.541 281.224 105.419 281.024 105.241 280.884C105.062 280.743 104.839 280.672 104.612 280.683C104.385 280.695 104.169 280.788 104.005 280.945C103.842 281.102 103.74 281.313 103.72 281.539L96.0439 351.248C95.9723 351.983 95.6177 352.661 95.0551 353.139C94.4924 353.617 93.7657 353.859 93.0281 353.813L85.1585 353.52C84.4689 353.471 83.8211 353.172 83.3373 352.679C82.8536 352.186 82.5674 351.533 82.5327 350.844L83.1614 266.606L123.96 261.515L126.81 305.458L126.799 305.505L116.385 351.548C116.235 352.162 115.883 352.708 115.386 353.099C114.888 353.489 114.274 353.702 113.641 353.703Z" fill="#2F2E41"/>
<path d="M96.6158 170.949C104.468 170.949 110.833 164.594 110.833 156.756C110.833 148.917 104.468 142.562 96.6158 142.562C88.7638 142.562 82.3985 148.917 82.3985 156.756C82.3985 164.594 88.7638 170.949 96.6158 170.949Z" fill="#A0616A"/>
<path d="M126.003 266.71C126.686 266.11 127.228 265.369 127.592 264.537C127.957 263.705 128.134 262.804 128.111 261.897C128.089 260.99 127.868 260.098 127.463 259.286C127.058 258.473 126.48 257.759 125.768 257.193L121.674 203.541L109.64 206.245L116.702 258.495C115.829 259.75 115.448 261.282 115.631 262.8C115.813 264.317 116.548 265.715 117.694 266.728C118.841 267.741 120.32 268.299 121.851 268.296C123.382 268.292 124.859 267.728 126.001 266.71H126.003Z" fill="#A0616A"/>
<path d="M110.012 273.017C107.788 273.03 105.607 272.407 103.727 271.222C96.8387 266.925 89.0177 268.632 84.968 270.033C84.5661 270.174 84.1376 270.222 83.7144 270.173C83.2913 270.125 82.8846 269.982 82.5247 269.755C82.1689 269.532 81.8683 269.231 81.6453 268.876C81.4224 268.52 81.2829 268.119 81.2373 267.702L73.8736 202.04C72.6395 191.038 79.2778 180.694 89.658 177.445C90.0481 177.322 90.4446 177.207 90.8475 177.098C94.0777 176.224 97.4606 176.067 100.758 176.638C104.056 177.209 107.188 178.495 109.934 180.405C112.731 182.336 115.07 184.855 116.787 187.786C118.504 190.717 119.557 193.987 119.871 197.368L126.071 263.471C126.113 263.899 126.056 264.331 125.902 264.733C125.749 265.135 125.504 265.495 125.187 265.787C123.013 267.793 116.705 273.016 110.012 273.017Z" fill="#DDDDDD"/>
<path d="M87.5862 216.12L70.9729 214.297C70.5001 214.245 70.0441 214.092 69.636 213.848C69.2278 213.604 68.877 213.276 68.6076 212.884C68.3381 212.493 68.1563 212.049 68.0745 211.581C67.9927 211.113 68.0129 210.633 68.1336 210.174L72.3628 194.082C72.4873 192.876 72.8501 191.706 73.4301 190.641C74.0102 189.576 74.7959 188.636 75.742 187.875C76.6881 187.115 77.7758 186.549 78.9421 186.211C80.1085 185.873 81.3304 185.769 82.5373 185.905C83.7442 186.041 84.9121 186.414 85.9735 187.004C87.035 187.593 87.9689 188.387 88.7213 189.338C89.4738 190.29 90.0298 191.382 90.3573 192.549C90.6848 193.717 90.7772 194.938 90.6293 196.141L91.2573 212.712C91.2753 213.187 91.1906 213.659 91.009 214.098C90.8274 214.537 90.5532 214.932 90.205 215.256C89.8569 215.579 89.4429 215.824 88.9914 215.973C88.5399 216.123 88.0614 216.173 87.5885 216.122L87.5862 216.12Z" fill="#DDDDDD"/>
<path d="M105.027 212.748C104.679 212.425 104.405 212.03 104.223 211.591C104.041 211.152 103.957 210.68 103.975 210.205L104.603 193.634C104.468 192.437 104.57 191.224 104.904 190.067C105.237 188.909 105.796 187.828 106.549 186.885C107.301 185.943 108.232 185.158 109.288 184.575C110.345 183.992 111.506 183.622 112.705 183.487C113.904 183.352 115.119 183.454 116.279 183.787C117.439 184.12 118.521 184.678 119.465 185.429C120.409 186.18 121.196 187.11 121.78 188.164C122.364 189.219 122.734 190.378 122.869 191.575L127.099 207.667C127.219 208.126 127.24 208.606 127.158 209.074C127.076 209.542 126.894 209.986 126.625 210.378C126.355 210.769 126.004 211.097 125.596 211.341C125.188 211.585 124.732 211.738 124.259 211.79L107.646 213.614C107.173 213.666 106.695 213.615 106.243 213.465C105.791 213.316 105.378 213.071 105.03 212.747L105.027 212.748Z" fill="#DDDDDD"/>
<path d="M95.7701 171.484C95.5168 171.484 95.2643 171.454 95.0176 171.396L94.9453 171.379C82.4454 169.472 79.6825 162.241 79.0764 159.223C78.4489 156.098 79.1632 153.081 80.7782 151.909C79.8978 149.136 80.039 146.673 81.1991 144.592C83.2251 140.963 87.6134 139.738 88.2033 139.585C91.71 137.003 95.9056 138.727 96.6691 139.076C103.453 136.571 106.047 138.656 106.514 139.122C109.546 139.666 111.395 140.835 112.008 142.598C113.161 145.91 109.516 150.03 109.361 150.204L109.28 150.294L103.85 150.552C103.335 150.577 102.83 150.709 102.37 150.941C101.909 151.173 101.502 151.499 101.176 151.897C100.849 152.296 100.611 152.759 100.475 153.255C100.339 153.752 100.309 154.272 100.388 154.781C100.535 155.438 100.72 156.085 100.943 156.72C101.87 159.613 102.564 162.084 101.669 163.024C101.466 163.206 101.216 163.327 100.947 163.373C100.679 163.42 100.402 163.39 100.15 163.287C99.3006 163.06 98.7246 163.108 98.4375 163.428C97.9918 163.925 98.1278 165.182 98.8207 166.968C99.0381 167.533 99.0967 168.146 98.9899 168.742C98.8832 169.337 98.6153 169.892 98.2152 170.347C97.914 170.702 97.5393 170.987 97.117 171.183C96.6947 171.379 96.2348 171.482 95.769 171.484H95.7701Z" fill="#2F2E41"/>
</g>
<defs>
<clipPath id="clip0_143_54">
<rect width="464" height="374" fill="white"/>
</clipPath>
</defs>
</svg>
